<svg id="Capa_1" enable-background="new 0 0 513 513" height="512" viewBox="0 0 513 513" width="512" xmlns="http://www.w3.org/2000/svg"><g><g><g><path d="m477.399 150.844-38.512-105.907c-8.064-22.176-29.138-36.937-52.735-36.937h-38.243c-8.463 0-16.637 1.904-24.01 5.396l-1.545.386c-13.105-3.675-26.867-5.782-41.146-5.782-26.493 0-51.391 6.787-73.091 18.683-10.491-11.7-25.577-18.683-41.75-18.683h-38.243c-23.595 0-44.671 14.761-52.734 36.937l-39.827 109.524c-6.591 18.126-1.717 38.438 12.384 51.598l67.754 63.237c13.256 12.373 34.916 6.181 39.63-11.328l2.365-8.784c27.656 38.363 72.609 63.43 123.513 63.43 2.693 0 5.358-.113 8.016-.251v112.477c0 44.272 35.89 80.161 80.161 80.161h16.032c35.417 0 64.129-28.712 64.129-64.129v-40.082c0-4.427-3.589-8.016-8.016-8.016h-16.032c-4.427 0-8.016 3.589-8.016 8.016v32.065c0 17.708-14.356 32.065-32.065 32.065s-32.065-14.356-32.065-32.065v-138.414c21.37-11.535 39.672-28.028 53.371-47.936l.011.008 54.327-40.759c16.941-12.71 23.575-35.006 16.337-54.91z" fill="#beebeb"/></g><g><path d="m353.353 264.516h-32.065c-4.427 0-8.016-3.589-8.016-8.016 0-4.427 3.589-8.016 8.016-8.016h32.065z" fill="#00d2dc"/></g><g><path d="m353.353 344.677h-32.065c-4.427 0-8.016-3.589-8.016-8.016 0-4.427 3.589-8.016 8.016-8.016h32.065z" fill="#00d2dc"/></g><g><path d="m353.353 304.597h-32.065c-4.427 0-8.016-3.589-8.016-8.016 0-4.427 3.589-8.016 8.016-8.016h32.065z" fill="#00d2dc"/></g><g><path d="m149.628 268.076-46.426-51.068c-13.807-15.188-18.22-36.704-11.506-56.101l52.93-152.907h-16.501c-23.596 0-44.671 14.761-52.735 36.937l-39.827 109.524c-6.591 18.126-1.717 38.437 12.384 51.598l67.754 63.237c10.209 9.529 25.328 7.965 33.927-1.22z" fill="#00d2dc"/></g><g><path d="m201.047 88.161-42.348 162.333c27.73 37.608 72.198 62.119 122.509 62.119 2.693 0 5.358-.113 8.016-.251v-23.797c0-13.282-10.767-24.048-24.048-24.048h-8.016c-13.282 0-24.048-10.767-24.048-24.048v-120.243c0-17.709-14.356-32.065-32.065-32.065z" fill="#00d2dc"/></g><g><path d="m233.112 248.484c0 17.708 14.356 32.065 32.065 32.065h24.048v-8.016c0-13.282-10.767-24.048-24.048-24.048h-32.065z" fill="#fff"/></g></g><g fill="#283c64"><path d="m484.918 148.11-38.513-105.907c-9.179-25.243-33.393-42.203-60.252-42.203h-38.243c-8.891 0-17.485 1.815-25.589 5.353-13.127-3.486-26.905-5.353-41.113-5.353-24.831 0-49.433 5.801-71.509 16.807-11.594-10.663-26.902-16.807-43.332-16.807h-38.243c-26.86 0-51.074 16.96-60.253 42.203l-39.827 109.524c-7.702 21.181-2.032 44.803 14.444 60.181l67.753 63.236c6.05 5.646 13.785 8.643 21.762 8.643 2.962 0 5.959-.414 8.914-1.258 8.805-2.517 15.889-8.478 19.848-16.443 13.233 15.031 29.281 27.606 47.026 36.763 22.52 11.621 47.907 17.764 73.417 17.764h.016v104.226c0 48.612 39.549 88.161 88.162 88.161h16.032c39.772 0 72.129-32.357 72.129-72.129v-40.081c0-8.832-7.185-16.016-16.016-16.016h-16.032c-8.831 0-16.016 7.185-16.016 16.016v32.064c0 13.269-10.795 24.064-24.064 24.064s-24.064-10.795-24.064-24.064v-133.695c20.709-11.968 38.104-28.143 51.341-47.115l53.168-39.89c19.897-14.929 27.555-40.666 19.054-64.044zm-203.694 124.438h-16.048c-10.465 0-19.386-6.717-22.692-16.064h22.692c8.849 0 16.048 7.199 16.048 16.048zm80.13 7.773v-87.712c0-4.495 1.663-8.601 4.561-11.265 3.625-3.332 7.49-5.021 11.487-5.021 6.27 0 12.538 4.433 17.197 12.163 2.281 3.783 7.196 5.002 10.982 2.721 3.784-2.281 5.002-7.198 2.721-10.982-7.625-12.648-18.887-19.902-30.9-19.902-8.021 0-15.737 3.195-22.315 9.241-6.186 5.686-9.733 14.085-9.733 23.045v101.845.003 138.399c0 22.092 17.973 40.064 40.064 40.064s40.064-17.973 40.064-40.064l.016-32.081 16.048.016v40.081c0 30.95-25.179 56.129-56.129 56.129h-16.032c-39.79 0-72.162-32.372-72.162-72.161v-152.308c0-17.671-14.377-32.048-32.048-32.048h-24.048c-8.849 0-16.048-7.199-16.048-16.048 0-4.418-3.582-8-8-8s-8 3.582-8 8c0 11.916 6.542 22.326 16.217 27.848 1.921 20.316 19.069 36.265 39.879 36.265h16.048v16.064c-.005 0-.011 0-.016 0-23.296 0-45.528-5.377-66.079-15.982-18.965-9.786-35.771-23.918-48.749-40.935l42.392-157.455c1.148-4.266-1.379-8.656-5.646-9.805-4.266-1.149-8.656 1.379-9.805 5.646l-45.717 169.805c-1.477 5.488-5.622 9.696-11.085 11.258-5.464 1.563-11.207.18-15.361-3.698l-67.752-63.237c-11.777-10.992-15.829-27.876-10.324-43.016l39.827-109.524c6.889-18.942 25.059-31.67 45.216-31.67h38.243c18.341 0 34.831 10.191 43.034 26.596l.523 1.046c1.975 3.952 6.781 5.554 10.733 3.578s5.554-6.781 3.578-10.733l-.523-1.046c-1.037-2.074-2.175-4.073-3.403-5.994 18.957-8.817 39.834-13.447 60.899-13.447 79.571 0 144.307 64.736 144.307 144.307 0 48.548-24.276 93.369-64.161 120.014zm94.907-80.967-25.712 19.291c7.139-18.287 10.966-38.02 10.966-58.339 0-63.399-36.996-118.316-90.531-144.307h35.169c20.157 0 38.328 12.728 45.216 31.67l38.512 105.908c6.076 16.711.603 35.107-13.62 45.777z"/><path d="m253.152 160.323c-13.305 0-25.917 7.082-34.601 19.43-2.542 3.614-1.672 8.604 1.942 11.146s8.604 1.673 11.146-1.942c5.729-8.147 13.37-12.634 21.513-12.634s15.783 4.487 21.512 12.634c1.558 2.215 4.035 3.398 6.551 3.398 1.59 0 3.196-.473 4.595-1.457 3.614-2.542 4.483-7.532 1.942-11.146-8.684-12.347-21.295-19.429-34.6-19.429z"/></g></g></svg>